<?xml version="1.0" standalone="no"?>
<!DOCTYPE svg PUBLIC "-//W3C//DTD SVG 20010904//EN"
 "http://www.w3.org/TR/2001/REC-SVG-20010904/DTD/svg10.dtd">
<svg version="1.0" xmlns="http://www.w3.org/2000/svg"
 width="400.000000pt" height="400.000000pt" viewBox="0 0 400.000000 400.000000"
 preserveAspectRatio="xMidYMid meet">
<metadata>
Created by potrace 1.11, written by Peter Selinger 2001-2013
</metadata>
<g transform="translate(0.000000,400.000000) scale(0.100000,-0.100000)"
fill="#000000" stroke="none">
<path d="M1824 3755 c-179 -39 -321 -171 -372 -346 -21 -73 -92 -442 -92 -480
0 -52 -70 -142 -292 -376 -127 -133 -148 -167 -128 -204 26 -48 96 -39 191 24
103 68 129 68 129 1 0 -43 41 -199 80 -304 17 -46 28 -86 23 -87 -4 -2 -35
-18 -68 -36 -44 -25 -65 -44 -82 -77 -43 -82 -20 -173 59 -230 l41 -30 272 0
c266 0 273 1 305 23 47 31 71 67 77 115 7 50 33 59 33 12 0 -45 34 -105 73
-129 33 -20 47 -21 303 -21 261 0 270 1 306 23 48 29 85 79 93 127 14 83 -30
153 -125 200 -25 12 -46 24 -48 25 -2 2 15 56 37 121 42 125 71 244 71 296 0
28 2 30 28 23 15 -3 55 -25 89 -47 112 -72 181 -81 202 -26 15 41 -9 78 -145
219 -238 248 -266 288 -283 404 -37 245 -82 441 -118 515 -89 183 -266 281
-502 279 -53 0 -123 -7 -157 -14z m32 -471 c19 -9 50 -35 69 -57 26 -30 38
-38 46 -30 8 8 16 9 29 1 15 -10 16 -14 4 -37 -8 -14 -14 -39 -15 -56 0 -25
-3 -21 -14 20 -23 85 -117 147 -198 130 -42 -9 -95 -42 -108 -67 -9 -17 -13
-18 -20 -7 -23 37 4 85 61 108 39 15 108 13 146 -5z m409 0 c53 -25 67 -46 59
-88 l-6 -37 -16 23 c-55 79 -162 96 -251 40 -25 -15 -25 -14 4 17 17 19 44 39
60 47 41 18 110 17 150 -2z m-402 -68 c18 -7 46 -28 61 -47 25 -29 28 -39 24
-86 -6 -65 -40 -106 -102 -122 -55 -14 -106 0 -145 40 -106 105 21 274 162
215z m364 -5 c81 -37 102 -140 41 -207 -78 -84 -219 -51 -249 58 -15 58 16
122 73 148 54 24 82 25 135 1z m143 -109 c0 -69 -18 -110 -69 -154 -25 -22
-38 -39 -31 -43 5 -3 8 -10 5 -15 -3 -4 7 -17 22 -28 l28 -20 -24 -26 c-52
-56 -120 -57 -225 -4 -75 38 -115 38 -189 -1 -100 -53 -153 -53 -210 -1 -32
30 -32 30 -12 48 11 10 25 27 31 38 10 17 7 23 -22 42 -35 23 -67 75 -79 130
-7 34 11 132 25 132 9 0 20 -60 20 -113 0 -118 132 -192 244 -137 25 12 55 35
67 51 26 37 40 37 68 -2 27 -37 93 -69 141 -69 49 0 113 32 140 70 21 29 28
65 40 200 3 36 29 -50 30 -98z m-651 -535 c51 -63 105 -120 120 -127 38 -19
202 -25 257 -10 37 11 57 26 102 79 83 96 146 181 169 225 l20 39 22 -31 c35
-50 79 -151 102 -237 17 -62 23 -118 26 -245 2 -91 0 -185 -4 -210 l-8 -45
-45 5 c-185 20 -360 -25 -433 -111 -28 -32 -41 -39 -69 -39 -27 0 -37 5 -46
25 -37 82 -268 150 -427 126 -33 -5 -61 -7 -63 -6 -2 2 -8 49 -14 106 -23 229
36 510 132 632 l22 27 22 -44 c12 -24 64 -96 115 -159z m356 175 c33 -20 46
-71 23 -89 -25 -19 -74 -23 -97 -6 -20 13 -24 13 -39 0 -24 -21 -79 -10 -99
20 -15 22 -15 26 4 51 38 51 141 63 208 24z"/>
<path d="M1805 3130 c-38 -42 18 -105 61 -70 21 18 18 67 -5 80 -28 14 -35 13
-56 -10z"/>
<path d="M2099 3129 c-32 -32 -11 -79 38 -79 21 0 43 25 43 49 0 14 -37 51
-50 51 -5 0 -19 -9 -31 -21z"/>
<path d="M1890 2711 c0 -16 55 -41 90 -41 17 0 44 7 60 15 36 18 41 41 8 30
-13 -5 -43 -8 -68 -8 -25 0 -55 3 -67 8 -15 5 -23 3 -23 -4z"/>
<path d="M229 1469 c-26 -6 -84 -29 -130 -52 -84 -42 -84 -42 -91 -87 -11 -78
-9 -634 3 -692 26 -118 129 -147 178 -50 21 42 41 146 41 214 l0 46 46 11
c161 41 294 198 294 346 0 34 -5 77 -12 96 -45 133 -179 201 -329 168z m109
-241 c18 -18 14 -72 -7 -99 -10 -13 -37 -34 -60 -47 l-41 -23 0 38 c0 21 -3
55 -6 75 -6 36 -5 39 27 53 42 18 71 19 87 3z"/>
<path d="M2628 1455 c-151 -25 -277 -83 -293 -135 -20 -64 30 -100 140 -100
l65 0 0 -270 c0 -294 7 -355 47 -394 47 -47 120 -22 142 47 5 17 12 156 15
307 3 151 8 286 11 300 5 21 19 30 72 49 139 50 186 148 93 196 -36 19 -181
19 -292 0z"/>
<path d="M760 1256 c-98 -26 -170 -92 -170 -155 0 -75 63 -92 153 -41 85 48
147 38 163 -26 8 -33 1 -38 -68 -53 -126 -27 -247 -113 -268 -191 -19 -70 17
-152 88 -201 52 -35 147 -33 219 4 l53 27 14 -33 c27 -66 106 -73 150 -14 19
25 21 44 24 179 7 307 -56 456 -214 504 -56 17 -84 17 -144 0z m160 -442 c0
-32 -4 -37 -45 -55 -55 -24 -89 -22 -93 6 -4 26 35 63 85 80 47 16 53 13 53
-31z"/>
<path d="M2007 1260 c-83 -21 -149 -69 -173 -126 -19 -45 -18 -60 6 -84 28
-28 75 -25 137 10 89 50 161 35 166 -35 2 -25 -2 -28 -69 -45 -232 -60 -331
-199 -237 -334 72 -102 165 -110 326 -28 4 2 7 -3 7 -12 0 -28 44 -66 82 -73
30 -4 41 -1 61 20 36 35 47 86 47 213 0 263 -64 429 -185 480 -44 18 -123 25
-168 14z m152 -463 c2 -33 -127 -75 -144 -47 -18 29 36 81 103 99 28 8 38 -5
41 -52z"/>
<path d="M1267 1239 c-65 -38 -83 -188 -70 -605 9 -289 10 -303 34 -350 21
-42 29 -49 58 -52 41 -4 77 26 91 77 5 20 12 96 16 169 7 130 7 132 26 115 25
-22 136 -30 178 -13 44 18 106 93 132 159 19 48 22 75 23 186 0 129 0 131 -35
200 -44 87 -81 115 -155 115 -65 0 -110 -15 -156 -51 l-37 -28 -12 30 c-13 30
-45 59 -65 59 -5 0 -18 -5 -28 -11z m283 -219 c11 -11 22 -31 26 -46 10 -38
-3 -122 -24 -157 -15 -26 -25 -33 -58 -35 -60 -4 -89 23 -97 90 -9 78 5 119
50 146 47 27 77 28 103 2z"/>
<path d="M2952 1216 c-113 -129 -119 -458 -9 -582 52 -60 100 -79 197 -79 75
0 90 3 133 28 102 60 142 154 142 332 -1 197 -50 315 -131 315 -39 0 -70 -26
-80 -66 -4 -15 -1 -84 6 -154 19 -185 -3 -260 -76 -260 -68 0 -85 70 -59 251
9 68 14 140 11 164 -14 87 -80 113 -134 51z"/>
<path d="M3863 1201 c-26 -21 -70 -68 -98 -105 l-50 -66 -27 55 c-41 80 -106
145 -146 145 -49 0 -76 -32 -69 -84 7 -45 52 -162 84 -214 l20 -33 -63 -105
c-85 -141 -93 -185 -40 -219 23 -15 28 -15 58 -1 19 9 65 47 102 85 l69 70 39
-47 c54 -66 105 -102 144 -102 37 0 64 29 64 68 0 26 -45 121 -85 181 -14 19
-25 39 -25 43 0 4 26 49 59 100 80 127 101 172 101 211 0 70 -61 78 -137 18z"/>
</g>
</svg>
